<?xml version="1.0" encoding="utf-8"?>
<!-- Generator: Adobe Illustrator 23.0.1, SVG Export Plug-In . SVG Version: 6.00 Build 0)  -->
<svg version="1.1" id="Capa_1" xmlns="http://www.w3.org/2000/svg" xmlns:xlink="http://www.w3.org/1999/xlink" x="0px" y="0px"
	 viewBox="0 0 291 59" style="enable-background:new 0 0 291 59;" xml:space="preserve">
<style type="text/css">
	.st0{fill:url(#SVGID_1_);}
	.st1{fill:url(#SVGID_2_);}
	.st2{fill:url(#SVGID_3_);}
	.st3{fill:url(#SVGID_4_);}
</style>
<g>
	<g>
		<linearGradient id="SVGID_1_" gradientUnits="userSpaceOnUse" x1="25.8465" y1="22.0613" x2="42.5598" y2="22.0613">
			<stop  offset="0" style="stop-color:#29ABE2"/>
			<stop  offset="1" style="stop-color:#0071BC"/>
		</linearGradient>
		<path class="st0" d="M25.9,15.37c0,4.07-0.47,6.25,1.5,6.25c0.83,0,1.5-0.67,1.5-1.5v-1.76c0-6.33,9.57-6.33,9.57,0
			c0,10.74,0.12,10.14-0.51,10.89c-1.38,1.65-0.26,4.19,1.9,4.28c2.27,0.09,3.54-2.55,2.12-4.27c-0.34-0.41-0.52-0.88-0.52-1.46
			c0-0.33,0-12.76,0-12.43c0-2.64-2.14-4.78-4.78-4.78h-5.98C28.04,10.59,25.9,12.73,25.9,15.37z"/>
		<linearGradient id="SVGID_2_" gradientUnits="userSpaceOnUse" x1="31.0584" y1="31.4541" x2="54" y2="31.4541">
			<stop  offset="0" style="stop-color:#29ABE2"/>
			<stop  offset="1" style="stop-color:#0071BC"/>
		</linearGradient>
		<path class="st1" d="M49.22,23.15c-4.07,0-6.25-0.47-6.25,1.5c0,0.83,0.67,1.5,1.5,1.5h1.76c6.33,0,6.33,9.57,0,9.57
			c-10.74,0-10.14,0.12-10.89-0.51c-1.65-1.38-4.19-0.26-4.28,1.9c-0.09,2.27,2.55,3.54,4.27,2.12c0.41-0.34,0.88-0.52,1.46-0.52
			c0.33,0,12.76,0,12.43,0c2.64,0,4.78-2.14,4.78-4.78v-5.98C54,25.29,51.86,23.15,49.22,23.15z"/>
	</g>
	<g>
		<linearGradient id="SVGID_3_" gradientUnits="userSpaceOnUse" x1="24.7798" y1="39.7801" x2="41.4931" y2="39.7801">
			<stop  offset="0" style="stop-color:#29ABE2"/>
			<stop  offset="1" style="stop-color:#0071BC"/>
		</linearGradient>
		<path class="st2" d="M41.44,46.47c0-4.07,0.47-6.25-1.5-6.25c-0.83,0-1.5,0.67-1.5,1.5v1.76c0,6.33-9.57,6.33-9.57,0
			c0-10.74-0.12-10.14,0.51-10.89c1.38-1.65,0.26-4.19-1.9-4.28c-2.27-0.09-3.54,2.55-2.12,4.27c0.34,0.41,0.52,0.88,0.52,1.46
			c0,0.33,0,12.76,0,12.43c0,2.64,2.14,4.78,4.78,4.78h5.98C39.3,51.25,41.44,49.11,41.44,46.47z"/>
		<linearGradient id="SVGID_4_" gradientUnits="userSpaceOnUse" x1="13.3396" y1="30.3873" x2="36.2812" y2="30.3873">
			<stop  offset="0" style="stop-color:#29ABE2"/>
			<stop  offset="1" style="stop-color:#0071BC"/>
		</linearGradient>
		<path class="st3" d="M18.12,38.69c4.07,0,6.25,0.47,6.25-1.5c0-0.83-0.67-1.5-1.5-1.5h-1.76c-6.33,0-6.33-9.57,0-9.57
			c10.74,0,10.14-0.12,10.89,0.51c1.65,1.38,4.19,0.26,4.28-1.9c0.09-2.27-2.55-3.54-4.27-2.12c-0.41,0.34-0.88,0.52-1.46,0.52
			c-0.33,0-12.76,0-12.43,0c-2.64,0-4.78,2.14-4.78,4.78v5.98C13.34,36.55,15.48,38.69,18.12,38.69z"/>
	</g>
</g>
<g>
	<path d="M72.03,12.53c2.24,0,3.87,0.22,5.61,0.73v2.42c-0.02,0-2.73-0.31-4.88-0.31c-2.27,0-3.12,0.51-3.12,5.39
		c0,3.61,0.59,5.35,3.12,5.35c2.31,0,4.88-0.18,4.88-0.18v2.4c-1.45,0.46-3.3,0.66-5.61,0.62c-4.07-0.04-5.48-3.12-5.48-8.23
		C66.55,15.57,67.65,12.53,72.03,12.53z"/>
	<path d="M79.2,11.58h3.08v12.59c0,1.69,0.4,2.07,1.01,2.29c0,0,1.32,0.46,1.47,0.46v1.89h-2.55c-1.91,0-3.01-1.06-3.01-4.16V11.58z
		"/>
	<path d="M86.09,17.13h3.08v11.68h-3.08V17.13z M88.62,12.66h2.68l-2.68,3.04h-2L88.62,12.66z"/>
	<path d="M91.15,17.13h2.46l0.62,1.25c0.99-0.73,1.91-1.45,3.7-1.45c2.73,0,3.5,1.87,3.5,4.09v7.79h-3.08v-7.83
		c0-1.14-0.53-1.58-1.3-1.58c-1.23,0-1.91,0.33-2.82,1.01v8.41h-3.08V17.13z"/>
	<path d="M103.07,13.45c0-0.35,0.18-0.57,0.53-0.57h2.31c0.33,0,0.48,0.26,0.48,0.57v1.94c0,0.33-0.18,0.51-0.48,0.51h-2.31
		c-0.31,0-0.53-0.2-0.53-0.51V13.45z M103.18,17.13h3.08v11.68h-3.08V17.13z"/>
	<path d="M111.92,17.02c1.14,0,3.45,0.07,5.37,0.7v1.89c0,0-2.09-0.13-4.05-0.13c-1.43,0-2.09,0.09-2.09,3.54
		c0,2.99,0.51,3.41,2.09,3.41c2.02,0,4.2-0.2,4.2-0.2v1.94c-1.69,0.88-3.7,0.73-5.52,0.75c-2.18,0-3.85-1.14-3.85-5.96
		C108.07,18.14,109.67,17.02,111.92,17.02z"/>
	<path d="M118.76,24.74c0-1.72,0.92-3.21,3.43-3.21c0,0,3.43,0.02,3.43,0c0,0,0.02-0.73,0-0.75c0-1.25-0.59-1.43-1.56-1.43
		c-1.03,0-3.96,0.18-4.91,0.24v-1.91c1.54-0.59,3.15-0.77,5.32-0.77c2.51,0,4.22,0.86,4.22,3.76v8.14h-2.44l-0.64-1.28
		c-0.13,0.24-1.78,1.45-3.56,1.41c-2.24-0.07-3.3-1.58-3.3-3.1V24.74z M122.94,26.48c1.28,0,2.68-0.92,2.68-0.92v-2.13l-2.84,0.22
		c-0.81,0.07-0.95,0.68-0.95,1.19v0.57C121.84,26.37,122.37,26.48,122.94,26.48z"/>
	<path d="M136.36,12.71h3.12l6.38,10.41V12.71h3.08v16.11h-3.08l-6.4-10.3v10.3h-3.1V12.71z"/>
	<path d="M150.77,17.13h3.08v7.83c0,1.17,0.53,1.56,1.3,1.56c1.23,0,1.91-0.31,2.82-1.01v-8.38h3.08v11.68h-2.49l-0.59-1.23
		c-1.17,0.68-1.94,1.43-3.72,1.43c-2.71,0-3.48-1.87-3.48-4.11V17.13z"/>
	<path d="M167.97,17.04c3.39,0,4.95,0.37,4.95,4.25c0,2.09-1.14,2.95-3.26,2.95h-3.72c0,2.09,0.79,2.22,2.46,2.22
		c1.78,0,2.64,0.02,4.29-0.24v2.09c-1.65,0.62-4.16,0.62-5.98,0.62c-2.97,0-3.85-1.72-3.85-6.01
		C162.87,17.9,164.27,17.04,167.97,17.04z M168.87,22.01c0.64,0,0.97-0.31,0.97-0.88c0-1.47-0.22-1.74-1.69-1.74
		c-1.63,0-2.22,0.09-2.2,2.62H168.87z"/>
	<path d="M176.99,17.13l2.55,8.08l2.62-8.08h3.3l-4.25,11.68h-3.45l-4.07-11.68H176.99z"/>
	<path d="M190.94,17.02c4.03,0,5.32,1.47,5.32,6.12c0,4.33-1.23,5.79-5.32,5.79c-4.03,0-5.33-1.61-5.33-5.79
		C185.61,18.36,187,17.02,190.94,17.02z M190.94,26.44c1.74,0,2.24-0.22,2.24-3.3c0-3.28-0.4-3.65-2.24-3.65
		c-1.83,0-2.24,0.37-2.24,3.65C188.69,26.15,189.31,26.44,190.94,26.44z"/>
	<path d="M203.72,12.71h7.04c2.53,0,4.4,1.17,4.4,5.02c0,3.98-1.67,4.47-2.57,4.75l3.06,6.34h-3.48l-2.66-6.09l-2.71-0.31v6.4h-3.08
		V12.71z M210.48,19.99c1.06,0,1.58-0.31,1.58-2.27c0-1.83-0.62-2.29-1.58-2.29h-3.65v4.55H210.48z"/>
	<path d="M221.67,17.02c4.03,0,5.32,1.47,5.32,6.12c0,4.33-1.23,5.79-5.32,5.79c-4.03,0-5.33-1.61-5.33-5.79
		C216.35,18.36,217.73,17.02,221.67,17.02z M221.67,26.44c1.74,0,2.24-0.22,2.24-3.3c0-3.28-0.4-3.65-2.24-3.65
		c-1.83,0-2.24,0.37-2.24,3.65C219.43,26.15,220.05,26.44,221.67,26.44z"/>
	<path d="M228.49,20.17c0-1.8,0.77-3.15,3.04-3.15c2.24,0,5.35,0.07,6.25,0.59v1.94h-5.3c-0.79,0-0.9,0.26-0.9,0.81v0.53
		c0,0.73,0.4,0.75,0.9,0.75h2.77c2.22,0,3.1,1.32,3.1,3.04v1.19c0,2.4-1.45,3.06-2.86,3.06c-2.22,0-5.7-0.11-6.51-0.64v-1.91h5.52
		c0.2,0,0.77-0.02,0.77-0.75v-0.55c0-0.48-0.13-0.75-0.77-0.75h-2.73c-2.07,0-3.28-0.88-3.28-3.15V20.17z"/>
	<path d="M239.67,24.74c0-1.72,0.92-3.21,3.43-3.21c0,0,3.43,0.02,3.43,0c0,0,0.02-0.73,0-0.75c0-1.25-0.59-1.43-1.56-1.43
		c-1.03,0-3.96,0.18-4.91,0.24v-1.91c1.54-0.59,3.15-0.77,5.32-0.77c2.51,0,4.22,0.86,4.22,3.76v8.14h-2.44l-0.64-1.28
		c-0.13,0.24-1.78,1.45-3.56,1.41c-2.24-0.07-3.3-1.58-3.3-3.1V24.74z M243.85,26.48c1.28,0,2.68-0.92,2.68-0.92v-2.13l-2.84,0.22
		c-0.81,0.07-0.95,0.68-0.95,1.19v0.57C242.75,26.37,243.28,26.48,243.85,26.48z"/>
	<path d="M251.44,17.13h2.6l0.48,1.47c0.79-0.79,1.89-1.58,3.34-1.58c0.51,0,0.99,0,1.3,0.13v2.97c-0.31-0.02-1.01-0.07-1.69-0.07
		c-1.28,0-2.2,0.22-2.95,1.3v7.46h-3.08V17.13z"/>
	<path d="M260.44,13.45c0-0.35,0.18-0.57,0.53-0.57h2.31c0.33,0,0.48,0.26,0.48,0.57v1.94c0,0.33-0.18,0.51-0.48,0.51h-2.31
		c-0.31,0-0.53-0.2-0.53-0.51V13.45z M260.55,17.13h3.08v11.68h-3.08V17.13z"/>
	<path d="M270.75,17.02c4.03,0,5.32,1.47,5.32,6.12c0,4.33-1.23,5.79-5.32,5.79c-4.03,0-5.33-1.61-5.33-5.79
		C265.43,18.36,266.82,17.02,270.75,17.02z M270.75,26.44c1.74,0,2.24-0.22,2.24-3.3c0-3.28-0.4-3.65-2.24-3.65
		c-1.83,0-2.24,0.37-2.24,3.65C268.51,26.15,269.13,26.44,270.75,26.44z"/>
	<path d="M66.36,36.3h8.18v0.91h-3.68v10.8h-0.91v-10.8h-3.59V36.3z"/>
	<path d="M76.89,39.45c1.98,0,3.25,0.19,3.25,3.01c0,1.25-0.7,1.81-2.19,1.81h-3.7c0,2.43,0.59,2.91,1.89,2.91
		c1.47,0,2.64-0.03,3.84-0.21v0.67c-1.3,0.37-2.51,0.45-3.84,0.45c-2.18-0.02-2.8-1.1-2.8-4.37C73.34,39.95,74.35,39.45,76.89,39.45
		z M77.95,43.37c0.77,0,1.28-0.18,1.28-0.91c0-1.92-0.54-2.1-2.32-2.1c-1.95,0-2.66,0.18-2.66,3.01H77.95z"/>
	<path d="M84.54,39.43c0.83,0,2.4,0.21,3.49,0.42v0.64c0,0-2.06-0.14-3.49-0.14c-1.14,0-1.89,0.3-1.89,3.47
		c0,2.74,0.66,3.36,1.89,3.36c1.47,0,3.6-0.22,3.6-0.22v0.67c-1.3,0.37-2.27,0.45-3.6,0.46c-1.58,0-2.8-0.61-2.8-4.34
		C81.74,40.04,82.91,39.43,84.54,39.43z"/>
	<path d="M89.92,39.51h0.62l0.29,0.99c0.96-0.58,1.95-1.14,3.25-1.14c1.7,0,2.63,1.31,2.63,2.72v5.92h-0.91v-5.92
		c0-1.12-0.69-1.81-1.71-1.81c-1.33,0-2.03,0.32-3.25,0.93v6.8h-0.91V39.51z"/>
	<path d="M101.98,39.43c2.83,0,3.67,1.2,3.67,4.45c0,3.14-0.86,4.21-3.67,4.21c-2.85,0-3.67-1.17-3.67-4.21
		C98.32,40.41,99.28,39.43,101.98,39.43z M101.98,47.18c1.82,0,2.75-0.35,2.75-3.3c0-3.19-0.86-3.54-2.75-3.54
		c-1.84,0-2.75,0.26-2.75,3.54C99.23,46.91,100.21,47.18,101.98,47.18z"/>
	<path d="M107.6,35.48h0.91v9.51c0,1.78,0.58,2,1.1,2.11c0,0,1.23,0.29,1.34,0.29v0.62h-1.3c-1.26,0-2.06-0.82-2.06-3.03V35.48z"/>
	<path d="M115.23,39.43c2.83,0,3.67,1.2,3.67,4.45c0,3.14-0.86,4.21-3.67,4.21c-2.85,0-3.67-1.17-3.67-4.21
		C111.57,40.41,112.53,39.43,115.23,39.43z M115.23,47.18c1.82,0,2.75-0.35,2.75-3.3c0-3.19-0.86-3.54-2.75-3.54
		c-1.84,0-2.75,0.26-2.75,3.54C112.48,46.91,113.45,47.18,115.23,47.18z"/>
	<path d="M121.71,44.89c-0.86-0.45-1.09-1.5-1.09-2.39c0-2.06,0.98-3.02,2.77-3.02h4.99v0.67l-1.46,0.24
		c0.21,0.29,0.66,0.72,0.66,2.11c0,0.96-0.37,2.99-2.64,2.99h-2.5c-0.26,0-0.91,0.06-0.91,0.62c0,0.5,0.48,0.67,0.86,0.67h3.38
		c1.38,0,2.15,0.86,2.15,2.18v0.94c0,0.96-0.3,2.42-2.4,2.42h-2.4c-1.5,0-2.54-0.83-2.54-2.46v-1.41l0.5-1.26
		c-0.34-0.26-0.45-0.69-0.45-1.06C120.62,45.63,120.96,44.99,121.71,44.89z M123.12,51.42h2.4c1.01,0,1.49-0.5,1.49-1.5v-0.9
		c0-0.82-0.27-1.33-1.38-1.33h-3.22c-0.61,0-0.91-0.24-0.91-0.24v2.42C121.5,51.25,122.53,51.42,123.12,51.42z M123.28,44.59h1.58
		c1.44,0,1.83-1.18,1.81-2.08c-0.03-1.36-0.46-2.11-1.58-2.11h-1.74c-1.47,0-1.81,0.99-1.81,2.11
		C121.53,43.59,122,44.59,123.28,44.59z"/>
	<path d="M129.8,39.51h0.91v8.5h-0.91V39.51z M131.65,36.34h1.15l-2.13,2.13h-0.82L131.65,36.34z"/>
	<path d="M132.51,45.02c0-1.31,0.8-2.13,2.13-2.13c0,0,3.67,0.02,3.67,0c0,0,0.02-1.06,0-1.07c0-1.02-0.5-1.58-1.58-1.58
		c-1.15,0-2.42,0.1-3.94,0.26v-0.66c1.06-0.29,2.39-0.46,3.99-0.48c1.33-0.02,2.45,0.7,2.45,2.47v6.19h-0.67l-0.24-1.02
		c-0.03,0-2.18,1.12-3.67,1.12c-1.17,0-2.13-0.75-2.13-2.11V45.02z M134.64,47.2c1.28,0.02,3.67-0.86,3.67-0.86v-2.75l-3.67,0.22
		c-0.9,0.06-1.22,0.61-1.22,1.28v0.83C133.42,46.89,134.01,47.2,134.64,47.2z"/>
	<path d="M146.19,36.3h1.26l3.22,10.2l3.14-10.2h1.28l1.04,11.72h-0.91l-0.91-10.15l-3.14,10.15h-0.94l-3.23-10.15l-0.85,10.15
		h-0.91L146.19,36.3z"/>
	<path d="M161.33,39.45c1.98,0,3.25,0.19,3.25,3.01c0,1.25-0.7,1.81-2.19,1.81h-3.7c0,2.43,0.59,2.91,1.89,2.91
		c1.47,0,2.64-0.03,3.84-0.21v0.67c-1.3,0.37-2.51,0.45-3.84,0.45c-2.18-0.02-2.8-1.1-2.8-4.37
		C157.77,39.95,158.78,39.45,161.33,39.45z M162.38,43.37c0.77,0,1.28-0.18,1.28-0.91c0-1.92-0.54-2.1-2.32-2.1
		c-1.95,0-2.66,0.18-2.66,3.01H162.38z M162.65,36.38h1.15l-2.13,2.13h-0.82L162.65,36.38z"/>
	<path d="M169.02,39.39c0.72,0,2.13,0.22,3.15,0.64v-4.58h0.88v12.56h-0.62l-0.27-0.94c-0.42,0.34-2.05,1.04-3.14,1.04
		c-2.32,0-2.85-2.35-2.85-4.31C166.17,41.63,166.6,39.39,169.02,39.39z M169.02,47.2c1.26,0,2.29-0.4,3.14-0.78v-5.68
		c-1.1-0.29-1.9-0.43-3.14-0.43c-1.14,0-1.94,0.64-1.94,3.51C167.08,46.16,167.87,47.2,169.02,47.2z"/>
	<path d="M175.02,37.21c0-0.21,0.11-0.34,0.32-0.34h0.59c0.19,0,0.3,0.14,0.3,0.34v0.9c0,0.21-0.13,0.32-0.3,0.32h-0.59
		c-0.19,0-0.32-0.13-0.32-0.32V37.21z M175.15,39.51h0.91v8.5h-0.91V39.51z"/>
	<path d="M180.81,39.43c0.83,0,2.4,0.21,3.49,0.42v0.64c0,0-2.06-0.14-3.49-0.14c-1.14,0-1.89,0.3-1.89,3.47
		c0,2.74,0.66,3.36,1.89,3.36c1.47,0,3.6-0.22,3.6-0.22v0.67c-1.3,0.37-2.27,0.45-3.6,0.46c-1.58,0-2.8-0.61-2.8-4.34
		C178.01,40.04,179.18,39.43,180.81,39.43z"/>
	<path d="M185.84,45.02c0-1.31,0.8-2.13,2.13-2.13c0,0,3.67,0.02,3.67,0c0,0,0.02-1.06,0-1.07c0-1.02-0.5-1.58-1.58-1.58
		c-1.15,0-2.42,0.1-3.94,0.26v-0.66c1.06-0.29,2.39-0.46,3.99-0.48c1.33-0.02,2.45,0.7,2.45,2.47v6.19h-0.67l-0.24-1.02
		c-0.03,0-2.18,1.12-3.67,1.12c-1.17,0-2.13-0.75-2.13-2.11V45.02z M187.97,47.2c1.28,0.02,3.67-0.86,3.67-0.86v-2.75l-3.67,0.22
		c-0.9,0.06-1.22,0.61-1.22,1.28v0.83C186.75,46.89,187.34,47.2,187.97,47.2z"/>
</g>
</svg>
